<mxfile host="app.diagrams.net" modified="2022-04-18T16:06:03.948Z" agent="5.0 (Windows NT 10.0; Win64; x64) AppleWebKit/537.36 (KHTML, like Gecko) Chrome/100.0.4896.88 Safari/537.36" etag="KHhfoYh_X_AfPN_OfcwK" version="17.4.5" type="github">
  <diagram id="C5RBs43oDa-KdzZeNtuy" name="Page-1">
    <mxGraphModel dx="1108" dy="1619" grid="1" gridSize="10" guides="1" tooltips="1" connect="1" arrows="1" fold="1" page="1" pageScale="1" pageWidth="827" pageHeight="1169" math="0" shadow="0">
      <root>
        <mxCell id="WIyWlLk6GJQsqaUBKTNV-0" />
        <mxCell id="WIyWlLk6GJQsqaUBKTNV-1" parent="WIyWlLk6GJQsqaUBKTNV-0" />
        <mxCell id="gIYHnbynYDfpQtlWQutr-0" value="" style="edgeStyle=orthogonalEdgeStyle;rounded=0;orthogonalLoop=1;jettySize=auto;html=1;entryX=0.5;entryY=0;entryDx=0;entryDy=0;" edge="1" parent="WIyWlLk6GJQsqaUBKTNV-1" source="gIYHnbynYDfpQtlWQutr-1" target="gIYHnbynYDfpQtlWQutr-52">
          <mxGeometry relative="1" as="geometry">
            <mxPoint x="132.5999999999999" y="-1090" as="targetPoint" />
          </mxGeometry>
        </mxCell>
        <mxCell id="gIYHnbynYDfpQtlWQutr-1" value="START" style="ellipse;whiteSpace=wrap;html=1;" vertex="1" parent="WIyWlLk6GJQsqaUBKTNV-1">
          <mxGeometry x="72.5" y="-1150" width="120" height="40" as="geometry" />
        </mxCell>
        <mxCell id="gIYHnbynYDfpQtlWQutr-43" value="END" style="ellipse;whiteSpace=wrap;html=1;" vertex="1" parent="WIyWlLk6GJQsqaUBKTNV-1">
          <mxGeometry x="430" y="-950" width="120" height="40" as="geometry" />
        </mxCell>
        <mxCell id="gIYHnbynYDfpQtlWQutr-49" value="Yes" style="rounded=0;html=1;jettySize=auto;orthogonalLoop=1;fontSize=11;endArrow=block;endFill=0;endSize=8;strokeWidth=1;shadow=0;labelBackgroundColor=none;edgeStyle=orthogonalEdgeStyle;exitX=1;exitY=0.5;exitDx=0;exitDy=0;" edge="1" parent="WIyWlLk6GJQsqaUBKTNV-1" target="gIYHnbynYDfpQtlWQutr-43">
          <mxGeometry x="0.1874" y="10" relative="1" as="geometry">
            <mxPoint as="offset" />
            <mxPoint x="675" y="-540" as="targetPoint" />
            <Array as="points" />
            <mxPoint x="388.75" y="-930" as="sourcePoint" />
          </mxGeometry>
        </mxCell>
        <mxCell id="gIYHnbynYDfpQtlWQutr-51" value="somewords: db &quot;ELE336 midterm2 prework assignment string&quot;,&#39;$&#39;" style="rounded=0;whiteSpace=wrap;html=1;" vertex="1" parent="WIyWlLk6GJQsqaUBKTNV-1">
          <mxGeometry x="70" y="-780" width="370" height="29" as="geometry" />
        </mxCell>
        <mxCell id="gIYHnbynYDfpQtlWQutr-56" value="" style="edgeStyle=orthogonalEdgeStyle;rounded=0;orthogonalLoop=1;jettySize=auto;html=1;" edge="1" parent="WIyWlLk6GJQsqaUBKTNV-1" source="gIYHnbynYDfpQtlWQutr-52" target="gIYHnbynYDfpQtlWQutr-55">
          <mxGeometry relative="1" as="geometry" />
        </mxCell>
        <mxCell id="gIYHnbynYDfpQtlWQutr-52" value="AX&amp;nbsp;&lt;font style=&quot;font-size: 10px&quot;&gt;&amp;lt;&lt;/font&gt;&lt;font style=&quot;font-size: 13px&quot;&gt;---&lt;/font&gt;&amp;nbsp; 0700h&lt;br&gt;DS&amp;nbsp;&lt;font style=&quot;font-size: 10px&quot;&gt;&amp;lt;&lt;/font&gt;&lt;font style=&quot;font-size: 13px&quot;&gt;---&lt;/font&gt;&amp;nbsp; AX&lt;br&gt;DI&amp;nbsp;&lt;font style=&quot;font-size: 10px&quot;&gt;&amp;lt;&lt;/font&gt;&lt;font style=&quot;font-size: 13px&quot;&gt;---&lt;/font&gt;&amp;nbsp; 0500h&lt;br&gt;SI&amp;nbsp;&lt;font style=&quot;font-size: 10px&quot;&gt;&amp;lt;&lt;/font&gt;&lt;font style=&quot;font-size: 13px&quot;&gt;---&lt;/font&gt;&amp;nbsp; OFFSET somewords&lt;br&gt;BX&amp;nbsp;&lt;font style=&quot;font-size: 10px&quot;&gt;&amp;lt;&lt;/font&gt;&lt;font style=&quot;font-size: 13px&quot;&gt;---&lt;/font&gt;&amp;nbsp; [SI]&lt;br&gt;[DI - 1]&amp;nbsp;&lt;font style=&quot;font-size: 10px&quot;&gt;&amp;lt;&lt;/font&gt;&lt;font style=&quot;font-size: 13px&quot;&gt;---&lt;/font&gt;&amp;nbsp; 24h" style="rounded=1;whiteSpace=wrap;html=1;fontSize=12;glass=0;strokeWidth=1;shadow=0;" vertex="1" parent="WIyWlLk6GJQsqaUBKTNV-1">
          <mxGeometry x="47.5" y="-1090" width="170" height="110" as="geometry" />
        </mxCell>
        <mxCell id="gIYHnbynYDfpQtlWQutr-61" style="edgeStyle=orthogonalEdgeStyle;rounded=0;orthogonalLoop=1;jettySize=auto;html=1;exitX=0;exitY=0.5;exitDx=0;exitDy=0;" edge="1" parent="WIyWlLk6GJQsqaUBKTNV-1" source="gIYHnbynYDfpQtlWQutr-53">
          <mxGeometry relative="1" as="geometry">
            <mxPoint x="133" y="-970" as="targetPoint" />
            <Array as="points">
              <mxPoint x="28" y="-840" />
              <mxPoint x="28" y="-970" />
              <mxPoint x="47" y="-970" />
            </Array>
          </mxGeometry>
        </mxCell>
        <mxCell id="gIYHnbynYDfpQtlWQutr-53" value="[DI]&amp;nbsp;&lt;font style=&quot;font-size: 10px&quot;&gt;&amp;lt;&lt;/font&gt;&lt;font style=&quot;font-size: 13px&quot;&gt;---&lt;/font&gt;&amp;nbsp; BL&lt;br&gt;SI&amp;nbsp;&lt;font style=&quot;font-size: 10px&quot;&gt;&amp;lt;&lt;/font&gt;&lt;font style=&quot;font-size: 13px&quot;&gt;---&lt;/font&gt;&amp;nbsp; SI + 1&amp;nbsp;&lt;br&gt;DI&amp;nbsp;&lt;font style=&quot;font-size: 10px&quot;&gt;&amp;lt;&lt;/font&gt;&lt;font style=&quot;font-size: 13px&quot;&gt;---&lt;/font&gt;&amp;nbsp; DI + 1&lt;br&gt;BX&amp;nbsp;&lt;font style=&quot;font-size: 10px&quot;&gt;&amp;lt;&lt;/font&gt;&lt;font style=&quot;font-size: 13px&quot;&gt;---&lt;/font&gt;&amp;nbsp; [SI]" style="rounded=1;whiteSpace=wrap;html=1;fontSize=12;glass=0;strokeWidth=1;shadow=0;" vertex="1" parent="WIyWlLk6GJQsqaUBKTNV-1">
          <mxGeometry x="47.5" y="-870" width="170" height="70" as="geometry" />
        </mxCell>
        <mxCell id="gIYHnbynYDfpQtlWQutr-55" value="BL = 24h" style="rhombus;whiteSpace=wrap;html=1;shadow=0;fontFamily=Helvetica;fontSize=12;align=center;strokeWidth=1;spacing=6;spacingTop=-4;" vertex="1" parent="WIyWlLk6GJQsqaUBKTNV-1">
          <mxGeometry x="82.5" y="-950" width="100" height="40" as="geometry" />
        </mxCell>
        <mxCell id="gIYHnbynYDfpQtlWQutr-66" value="" style="edgeStyle=orthogonalEdgeStyle;rounded=0;orthogonalLoop=1;jettySize=auto;html=1;" edge="1" parent="WIyWlLk6GJQsqaUBKTNV-1" source="gIYHnbynYDfpQtlWQutr-57" target="gIYHnbynYDfpQtlWQutr-63">
          <mxGeometry relative="1" as="geometry" />
        </mxCell>
        <mxCell id="gIYHnbynYDfpQtlWQutr-57" value="SI&amp;nbsp;&lt;font style=&quot;font-size: 10px&quot;&gt;&amp;lt;&lt;/font&gt;&lt;font style=&quot;font-size: 13px&quot;&gt;---&lt;/font&gt;&amp;nbsp; DI&lt;br&gt;BX&amp;nbsp;&lt;font style=&quot;font-size: 10px&quot;&gt;&amp;lt;&lt;/font&gt;&lt;font style=&quot;font-size: 13px&quot;&gt;---&lt;/font&gt;&amp;nbsp; [SI - 1]&lt;br&gt;DI&amp;nbsp;&lt;font style=&quot;font-size: 10px&quot;&gt;&amp;lt;&lt;/font&gt;&lt;font style=&quot;font-size: 13px&quot;&gt;---&lt;/font&gt;&amp;nbsp; 0540h&lt;br&gt;" style="rounded=1;whiteSpace=wrap;html=1;fontSize=12;glass=0;strokeWidth=1;shadow=0;" vertex="1" parent="WIyWlLk6GJQsqaUBKTNV-1">
          <mxGeometry x="297.5" y="-1070" width="115" height="50" as="geometry" />
        </mxCell>
        <mxCell id="gIYHnbynYDfpQtlWQutr-59" value="Yes" style="rounded=0;html=1;jettySize=auto;orthogonalLoop=1;fontSize=11;endArrow=block;endFill=0;endSize=8;strokeWidth=1;shadow=0;labelBackgroundColor=none;edgeStyle=orthogonalEdgeStyle;entryX=0;entryY=0.5;entryDx=0;entryDy=0;exitX=1;exitY=0.5;exitDx=0;exitDy=0;" edge="1" parent="WIyWlLk6GJQsqaUBKTNV-1" source="gIYHnbynYDfpQtlWQutr-55" target="gIYHnbynYDfpQtlWQutr-57">
          <mxGeometry x="-0.8353" y="10" relative="1" as="geometry">
            <mxPoint x="1" as="offset" />
            <mxPoint x="80" y="-520" as="targetPoint" />
            <Array as="points">
              <mxPoint x="230" y="-930" />
              <mxPoint x="230" y="-1045" />
            </Array>
            <mxPoint x="300" y="-690" as="sourcePoint" />
          </mxGeometry>
        </mxCell>
        <mxCell id="gIYHnbynYDfpQtlWQutr-60" value="No" style="edgeStyle=orthogonalEdgeStyle;rounded=0;html=1;jettySize=auto;orthogonalLoop=1;fontSize=11;endArrow=block;endFill=0;endSize=8;strokeWidth=1;shadow=0;labelBackgroundColor=none;exitX=0.5;exitY=1;exitDx=0;exitDy=0;" edge="1" parent="WIyWlLk6GJQsqaUBKTNV-1" source="gIYHnbynYDfpQtlWQutr-55" target="gIYHnbynYDfpQtlWQutr-53">
          <mxGeometry x="-0.3115" y="7" relative="1" as="geometry">
            <mxPoint as="offset" />
            <mxPoint x="133" y="-890" as="targetPoint" />
            <Array as="points" />
            <mxPoint x="132" y="-910" as="sourcePoint" />
          </mxGeometry>
        </mxCell>
        <mxCell id="gIYHnbynYDfpQtlWQutr-62" value="[DI]&amp;nbsp;&lt;font style=&quot;font-size: 10px&quot;&gt;&amp;lt;&lt;/font&gt;&lt;font style=&quot;font-size: 13px&quot;&gt;---&lt;/font&gt;&amp;nbsp; BL&lt;br&gt;SI&amp;nbsp;&lt;font style=&quot;font-size: 10px&quot;&gt;&amp;lt;&lt;/font&gt;&lt;font style=&quot;font-size: 13px&quot;&gt;---&lt;/font&gt;&amp;nbsp; SI - 1&amp;nbsp;&lt;br&gt;DI&amp;nbsp;&lt;font style=&quot;font-size: 10px&quot;&gt;&amp;lt;&lt;/font&gt;&lt;font style=&quot;font-size: 13px&quot;&gt;---&lt;/font&gt;&amp;nbsp; DI + 1&lt;br&gt;BX&amp;nbsp;&lt;font style=&quot;font-size: 10px&quot;&gt;&amp;lt;&lt;/font&gt;&lt;font style=&quot;font-size: 13px&quot;&gt;---&lt;/font&gt;&amp;nbsp; [SI - 1]" style="rounded=1;whiteSpace=wrap;html=1;fontSize=12;glass=0;strokeWidth=1;shadow=0;" vertex="1" parent="WIyWlLk6GJQsqaUBKTNV-1">
          <mxGeometry x="270" y="-870" width="170" height="70" as="geometry" />
        </mxCell>
        <mxCell id="gIYHnbynYDfpQtlWQutr-63" value="BL = 24h" style="rhombus;whiteSpace=wrap;html=1;shadow=0;fontFamily=Helvetica;fontSize=12;align=center;strokeWidth=1;spacing=6;spacingTop=-4;" vertex="1" parent="WIyWlLk6GJQsqaUBKTNV-1">
          <mxGeometry x="305" y="-950" width="100" height="40" as="geometry" />
        </mxCell>
        <mxCell id="gIYHnbynYDfpQtlWQutr-64" value="No" style="edgeStyle=orthogonalEdgeStyle;rounded=0;html=1;jettySize=auto;orthogonalLoop=1;fontSize=11;endArrow=block;endFill=0;endSize=8;strokeWidth=1;shadow=0;labelBackgroundColor=none;entryX=0.5;entryY=0;entryDx=0;entryDy=0;exitX=0.5;exitY=1;exitDx=0;exitDy=0;" edge="1" parent="WIyWlLk6GJQsqaUBKTNV-1" source="gIYHnbynYDfpQtlWQutr-63" target="gIYHnbynYDfpQtlWQutr-62">
          <mxGeometry x="-0.3115" y="7" relative="1" as="geometry">
            <mxPoint as="offset" />
            <mxPoint x="354.5" y="-880" as="targetPoint" />
            <Array as="points" />
            <mxPoint x="354.5" y="-920" as="sourcePoint" />
          </mxGeometry>
        </mxCell>
        <mxCell id="gIYHnbynYDfpQtlWQutr-67" style="edgeStyle=orthogonalEdgeStyle;rounded=0;orthogonalLoop=1;jettySize=auto;html=1;exitX=0;exitY=0.5;exitDx=0;exitDy=0;" edge="1" parent="WIyWlLk6GJQsqaUBKTNV-1" source="gIYHnbynYDfpQtlWQutr-62">
          <mxGeometry relative="1" as="geometry">
            <mxPoint x="355" y="-990" as="targetPoint" />
            <mxPoint x="259.5" y="-845" as="sourcePoint" />
            <Array as="points">
              <mxPoint x="250" y="-835" />
              <mxPoint x="250" y="-990" />
            </Array>
          </mxGeometry>
        </mxCell>
      </root>
    </mxGraphModel>
  </diagram>
</mxfile>
